<svg width="24" height="24" viewBox="0 0 24 24" fill="none" xmlns="http://www.w3.org/2000/svg">
<path d="M4.5 3.75012L19.5 20.2501" stroke="#1D2026" stroke-width="1.5" stroke-linecap="round" stroke-linejoin="round"/>
<path d="M14.5223 14.7749C13.7864 15.4438 12.8149 15.793 11.8215 15.7457C10.8281 15.6983 9.89422 15.2583 9.22524 14.5225C8.55626 13.7866 8.20698 12.8151 8.25424 11.8217C8.3015 10.8283 8.74142 9.89439 9.47724 9.22534" stroke="#1D2026" stroke-width="1.5" stroke-linecap="round" stroke-linejoin="round"/>
<path d="M6.93698 6.43079C3.11486 8.36631 1.5 12.0001 1.5 12.0001C1.5 12.0001 4.5 18.7494 12 18.7494C13.7572 18.7634 15.4926 18.3587 17.0623 17.5687" stroke="#1D2026" stroke-width="1.5" stroke-linecap="round" stroke-linejoin="round"/>
<path d="M19.5566 15.8532C21.6006 14.0225 22.4995 12.0001 22.4995 12.0001C22.4995 12.0001 19.4995 5.24941 11.9995 5.24941C11.3499 5.24834 10.7014 5.30115 10.0605 5.40729" stroke="#1D2026" stroke-width="1.5" stroke-linecap="round" stroke-linejoin="round"/>
<path d="M12.7051 8.31653C13.5021 8.46958 14.228 8.87692 14.774 9.47747C15.3199 10.078 15.6564 10.8394 15.733 11.6473" stroke="#1D2026" stroke-width="1.5" stroke-linecap="round" stroke-linejoin="round"/>
</svg>
